<?xml version="1.0" encoding="utf-8"?>
<!-- Generator: Adobe Illustrator 21.1.0, SVG Export Plug-In . SVG Version: 6.00 Build 0)  -->
<svg version="1.1" id="Layer_1" xmlns="http://www.w3.org/2000/svg" xmlns:xlink="http://www.w3.org/1999/xlink" x="0px" y="0px"
	 viewBox="0 0 1008.6 214.6" style="enable-background:new 0 0 1008.6 214.6;" xml:space="preserve">
<style type="text/css">
	.st0{fill:url(#SVGID_1_);}
	.st1{fill:url(#SVGID_2_);}
	.st2{fill:url(#SVGID_3_);}
	.st3{fill:url(#SVGID_4_);}
	.st4{fill:url(#SVGID_5_);}
	.st5{fill:url(#SVGID_6_);}
	.st6{fill:url(#SVGID_7_);}
	.st7{fill:url(#SVGID_8_);}
	.st8{fill:url(#SVGID_9_);}
	.st9{fill:url(#SVGID_10_);}
	.st10{fill:url(#SVGID_11_);}
	.st11{fill:url(#SVGID_12_);}
	.st12{fill:url(#SVGID_13_);}
	.st13{fill:url(#SVGID_14_);}
	.st14{fill:url(#SVGID_15_);}
	.st15{fill:url(#SVGID_16_);}
	.st16{fill:url(#SVGID_17_);}
	.st17{fill:url(#SVGID_18_);}
	.st18{fill:url(#SVGID_19_);}
	.st19{fill:url(#SVGID_20_);}
	.st20{clip-path:url(#SVGID_22_);}
	.st21{fill:url(#SVGID_23_);}
	.st22{fill:url(#SVGID_24_);}
	.st23{fill:url(#SVGID_25_);}
	.st24{fill:url(#SVGID_26_);}
	.st25{fill:url(#SVGID_27_);}
	.st26{fill:url(#SVGID_28_);}
	.st27{fill:url(#SVGID_29_);}
	.st28{fill:url(#SVGID_30_);}
	.st29{fill:url(#SVGID_31_);}
	.st30{fill:url(#SVGID_32_);}
	.st31{fill:url(#SVGID_33_);}
	.st32{fill:url(#SVGID_34_);}
	.st33{fill:url(#SVGID_35_);}
	.st34{fill:url(#SVGID_36_);}
	.st35{fill:url(#SVGID_37_);}
	.st36{fill:url(#SVGID_38_);}
	.st37{fill:url(#SVGID_39_);}
	.st38{fill:url(#SVGID_40_);}
	.st39{fill:url(#SVGID_41_);}
	.st40{fill:url(#SVGID_42_);}
	.st41{clip-path:url(#SVGID_44_);}
	.st42{fill:#FFFFFF;}
	.st43{clip-path:url(#SVGID_46_);}
	.st44{fill:#22BFBB;}
	.st45{clip-path:url(#SVGID_48_);fill:#22BFBB;}
	.st46{fill:url(#SVGID_49_);}
</style>
<g>
	<linearGradient id="SVGID_1_" gradientUnits="userSpaceOnUse" x1="156.3715" y1="209.5032" x2="156.3715" y2="39.0586">
		<stop  offset="5.035582e-02" style="stop-color:#1B8984"/>
		<stop  offset="0.97" style="stop-color:#22BFBB"/>
	</linearGradient>
	<path class="st0" d="M97.1,120.2v60.1c0,1.3,1,2.3,2.3,2.3h113.9c1.3,0,2.3-1,2.3-2.3V72.8c-18.7,15.9-47.7,30.6-81.7,39.9
		C121.3,116.2,108.9,118.6,97.1,120.2z"/>
</g>
<g>
	<linearGradient id="SVGID_2_" gradientUnits="userSpaceOnUse" x1="119.8568" y1="209.5032" x2="119.8568" y2="39.0586">
		<stop  offset="5.035582e-02" style="stop-color:#1B8984"/>
		<stop  offset="0.97" style="stop-color:#22BFBB"/>
	</linearGradient>
	<path class="st1" d="M237.6,29.3c-7.7-28.3-66.7-36.8-131.7-19S-5.6,65.4,2.1,93.7c6.2,22.8,45.8,32.8,95,26.4v-8.9
		c-40.1,4.2-72.2-5-77.6-24.6C12.7,61.5,51.8,29,106.8,14C161.9-1.1,212.1,7,218.9,32c2.7,10-1.9,21.2-11.9,32h6.3
		c1.3,0,2.3,1,2.3,2.3v6.5C232.6,58.3,241.3,42.8,237.6,29.3z"/>
</g>
<g>
	<linearGradient id="SVGID_3_" gradientUnits="userSpaceOnUse" x1="91.1515" y1="209.5032" x2="91.1515" y2="39.0586">
		<stop  offset="5.035582e-02" style="stop-color:#1B8984"/>
		<stop  offset="0.97" style="stop-color:#22BFBB"/>
	</linearGradient>
	<rect x="85.2" y="28.1" class="st2" width="12" height="12"/>
</g>
<g>
	<linearGradient id="SVGID_4_" gradientUnits="userSpaceOnUse" x1="103.1349" y1="209.5032" x2="103.1349" y2="39.0586">
		<stop  offset="5.035582e-02" style="stop-color:#1B8984"/>
		<stop  offset="0.97" style="stop-color:#22BFBB"/>
	</linearGradient>
	<rect x="97.1" y="40.1" class="st3" width="12" height="12"/>
</g>
<g>
	<linearGradient id="SVGID_5_" gradientUnits="userSpaceOnUse" x1="91.1515" y1="209.5032" x2="91.1515" y2="39.0586">
		<stop  offset="5.035582e-02" style="stop-color:#1B8984"/>
		<stop  offset="0.97" style="stop-color:#22BFBB"/>
	</linearGradient>
	<rect x="85.2" y="64.1" class="st4" width="12" height="12"/>
</g>
<g>
	<linearGradient id="SVGID_6_" gradientUnits="userSpaceOnUse" x1="115.1184" y1="209.5032" x2="115.1184" y2="39.0586">
		<stop  offset="5.035582e-02" style="stop-color:#1B8984"/>
		<stop  offset="0.97" style="stop-color:#22BFBB"/>
	</linearGradient>
	<rect x="109.1" y="64.1" class="st5" width="12" height="12"/>
</g>
<g>
	<linearGradient id="SVGID_7_" gradientUnits="userSpaceOnUse" x1="103.1349" y1="209.5032" x2="103.1349" y2="39.0586">
		<stop  offset="5.035582e-02" style="stop-color:#1B8984"/>
		<stop  offset="0.97" style="stop-color:#22BFBB"/>
	</linearGradient>
	<rect x="97.1" y="76" class="st6" width="12" height="12"/>
</g>
<g>
	<linearGradient id="SVGID_8_" gradientUnits="userSpaceOnUse" x1="115.1184" y1="209.5032" x2="115.1184" y2="39.0586">
		<stop  offset="5.035582e-02" style="stop-color:#1B8984"/>
		<stop  offset="0.97" style="stop-color:#22BFBB"/>
	</linearGradient>
	<rect x="109.1" y="88" class="st7" width="12" height="12"/>
</g>
<g>
	<linearGradient id="SVGID_9_" gradientUnits="userSpaceOnUse" x1="127.1019" y1="209.5032" x2="127.1019" y2="39.0586">
		<stop  offset="5.035582e-02" style="stop-color:#1B8984"/>
		<stop  offset="0.97" style="stop-color:#22BFBB"/>
	</linearGradient>
	<rect x="121.1" y="88" class="st8" width="12" height="12"/>
</g>
<g>
	<linearGradient id="SVGID_10_" gradientUnits="userSpaceOnUse" x1="139.0854" y1="209.5032" x2="139.0854" y2="39.0586">
		<stop  offset="5.035582e-02" style="stop-color:#1B8984"/>
		<stop  offset="0.97" style="stop-color:#22BFBB"/>
	</linearGradient>
	<rect x="133.1" y="88" class="st9" width="12" height="12"/>
</g>
<g>
	<linearGradient id="SVGID_11_" gradientUnits="userSpaceOnUse" x1="127.1019" y1="209.5032" x2="127.1019" y2="39.0586">
		<stop  offset="5.035582e-02" style="stop-color:#1B8984"/>
		<stop  offset="0.97" style="stop-color:#22BFBB"/>
	</linearGradient>
	<rect x="121.1" y="52.1" class="st10" width="12" height="12"/>
</g>
<g>
	<linearGradient id="SVGID_12_" gradientUnits="userSpaceOnUse" x1="139.0854" y1="209.5032" x2="139.0854" y2="39.0586">
		<stop  offset="5.035582e-02" style="stop-color:#1B8984"/>
		<stop  offset="0.97" style="stop-color:#22BFBB"/>
	</linearGradient>
	<rect x="133.1" y="64.1" class="st11" width="12" height="12"/>
</g>
<g>
	<linearGradient id="SVGID_13_" gradientUnits="userSpaceOnUse" x1="127.1019" y1="209.5032" x2="127.1019" y2="39.0586">
		<stop  offset="5.035582e-02" style="stop-color:#1B8984"/>
		<stop  offset="0.97" style="stop-color:#22BFBB"/>
	</linearGradient>
	<rect x="121.1" y="76" class="st12" width="12" height="12"/>
</g>
<g>
	<linearGradient id="SVGID_14_" gradientUnits="userSpaceOnUse" x1="139.0854" y1="209.5032" x2="139.0854" y2="39.0586">
		<stop  offset="5.035582e-02" style="stop-color:#1B8984"/>
		<stop  offset="0.97" style="stop-color:#22BFBB"/>
	</linearGradient>
	<rect x="133.1" y="76" class="st13" width="12" height="12"/>
</g>
<g>
	<linearGradient id="SVGID_15_" gradientUnits="userSpaceOnUse" x1="151.0688" y1="209.5032" x2="151.0688" y2="39.0586">
		<stop  offset="5.035582e-02" style="stop-color:#1B8984"/>
		<stop  offset="0.97" style="stop-color:#22BFBB"/>
	</linearGradient>
	<rect x="145.1" y="64.1" class="st14" width="12" height="12"/>
</g>
<g>
	<linearGradient id="SVGID_16_" gradientUnits="userSpaceOnUse" x1="163.0523" y1="209.5032" x2="163.0523" y2="39.0586">
		<stop  offset="5.035582e-02" style="stop-color:#1B8984"/>
		<stop  offset="0.97" style="stop-color:#22BFBB"/>
	</linearGradient>
	<rect x="157.1" y="64.1" class="st15" width="12" height="12"/>
</g>
<g>
	<linearGradient id="SVGID_17_" gradientUnits="userSpaceOnUse" x1="151.0688" y1="209.5032" x2="151.0688" y2="39.0586">
		<stop  offset="5.035582e-02" style="stop-color:#1B8984"/>
		<stop  offset="0.97" style="stop-color:#22BFBB"/>
	</linearGradient>
	<rect x="145.1" y="76" class="st16" width="12" height="12"/>
</g>
<g>
	<linearGradient id="SVGID_18_" gradientUnits="userSpaceOnUse" x1="163.0523" y1="209.5032" x2="163.0523" y2="39.0586">
		<stop  offset="5.035582e-02" style="stop-color:#1B8984"/>
		<stop  offset="0.97" style="stop-color:#22BFBB"/>
	</linearGradient>
	<rect x="157.1" y="76" class="st17" width="12" height="12"/>
</g>
<g>
	<linearGradient id="SVGID_19_" gradientUnits="userSpaceOnUse" x1="175.0358" y1="209.5032" x2="175.0358" y2="39.0586">
		<stop  offset="5.035582e-02" style="stop-color:#1B8984"/>
		<stop  offset="0.97" style="stop-color:#22BFBB"/>
	</linearGradient>
	<rect x="169" y="64.1" class="st18" width="12" height="12"/>
</g>
<g>
	<linearGradient id="SVGID_20_" gradientUnits="userSpaceOnUse" x1="187.0193" y1="209.5032" x2="187.0193" y2="39.0586">
		<stop  offset="5.035582e-02" style="stop-color:#1B8984"/>
		<stop  offset="0.97" style="stop-color:#22BFBB"/>
	</linearGradient>
	<rect x="181" y="64.1" class="st19" width="12" height="12"/>
</g>
<g>
	<defs>
		<path id="SVGID_21_" d="M207.1,64.1H99.4c-1.3,0-2.3,1-2.3,2.3v44.9c11-1.2,22.7-3.3,34.5-6.6C164.7,95.6,192,80.3,207.1,64.1z"/>
	</defs>
	<clipPath id="SVGID_22_">
		<use xlink:href="#SVGID_21_"  style="overflow:visible;"/>
	</clipPath>
	<g class="st20">
		<linearGradient id="SVGID_23_" gradientUnits="userSpaceOnUse" x1="103.1349" y1="209.5032" x2="103.1349" y2="39.0586">
			<stop  offset="5.035582e-02" style="stop-color:#1B8984"/>
			<stop  offset="0.97" style="stop-color:#22BFBB"/>
		</linearGradient>
		<rect x="97.1" y="100" class="st21" width="12" height="12"/>
	</g>
	<g class="st20">
		<linearGradient id="SVGID_24_" gradientUnits="userSpaceOnUse" x1="115.1184" y1="209.5032" x2="115.1184" y2="39.0586">
			<stop  offset="5.035582e-02" style="stop-color:#1B8984"/>
			<stop  offset="0.97" style="stop-color:#22BFBB"/>
		</linearGradient>
		<rect x="109.1" y="100" class="st22" width="12" height="12"/>
	</g>
	<g class="st20">
		<linearGradient id="SVGID_25_" gradientUnits="userSpaceOnUse" x1="127.1019" y1="209.5032" x2="127.1019" y2="39.0586">
			<stop  offset="5.035582e-02" style="stop-color:#1B8984"/>
			<stop  offset="0.97" style="stop-color:#22BFBB"/>
		</linearGradient>
		<rect x="121.1" y="100" class="st23" width="12" height="12"/>
	</g>
	<g class="st20">
		<linearGradient id="SVGID_26_" gradientUnits="userSpaceOnUse" x1="139.0854" y1="209.5032" x2="139.0854" y2="39.0586">
			<stop  offset="5.035582e-02" style="stop-color:#1B8984"/>
			<stop  offset="0.97" style="stop-color:#22BFBB"/>
		</linearGradient>
		<rect x="133.1" y="100" class="st24" width="12" height="12"/>
	</g>
	<g class="st20">
		<linearGradient id="SVGID_27_" gradientUnits="userSpaceOnUse" x1="151.0688" y1="209.5032" x2="151.0688" y2="39.0586">
			<stop  offset="5.035582e-02" style="stop-color:#1B8984"/>
			<stop  offset="0.97" style="stop-color:#22BFBB"/>
		</linearGradient>
		<rect x="145.1" y="100" class="st25" width="12" height="12"/>
	</g>
	<g class="st20">
		<linearGradient id="SVGID_28_" gradientUnits="userSpaceOnUse" x1="151.0688" y1="209.5032" x2="151.0688" y2="39.0586">
			<stop  offset="5.035582e-02" style="stop-color:#1B8984"/>
			<stop  offset="0.97" style="stop-color:#22BFBB"/>
		</linearGradient>
		<rect x="145.1" y="88" class="st26" width="12" height="12"/>
	</g>
	<g class="st20">
		<linearGradient id="SVGID_29_" gradientUnits="userSpaceOnUse" x1="163.0523" y1="209.5032" x2="163.0523" y2="39.0586">
			<stop  offset="5.035582e-02" style="stop-color:#1B8984"/>
			<stop  offset="0.97" style="stop-color:#22BFBB"/>
		</linearGradient>
		<rect x="157.1" y="88" class="st27" width="12" height="12"/>
	</g>
	<g class="st20">
		<linearGradient id="SVGID_30_" gradientUnits="userSpaceOnUse" x1="175.0358" y1="209.5032" x2="175.0358" y2="39.0586">
			<stop  offset="5.035582e-02" style="stop-color:#1B8984"/>
			<stop  offset="0.97" style="stop-color:#22BFBB"/>
		</linearGradient>
		<rect x="169" y="88" class="st28" width="12" height="12"/>
	</g>
	<g class="st20">
		<linearGradient id="SVGID_31_" gradientUnits="userSpaceOnUse" x1="199.0027" y1="209.5032" x2="199.0027" y2="39.0586">
			<stop  offset="5.035582e-02" style="stop-color:#1B8984"/>
			<stop  offset="0.97" style="stop-color:#22BFBB"/>
		</linearGradient>
		<rect x="193" y="64.1" class="st29" width="12" height="12"/>
	</g>
	<g class="st20">
		<linearGradient id="SVGID_32_" gradientUnits="userSpaceOnUse" x1="210.9862" y1="209.5032" x2="210.9862" y2="39.0586">
			<stop  offset="5.035582e-02" style="stop-color:#1B8984"/>
			<stop  offset="0.97" style="stop-color:#22BFBB"/>
		</linearGradient>
		<rect x="205" y="64.1" class="st30" width="12" height="12"/>
	</g>
	<g class="st20">
		<linearGradient id="SVGID_33_" gradientUnits="userSpaceOnUse" x1="187.0193" y1="209.5032" x2="187.0193" y2="39.0586">
			<stop  offset="5.035582e-02" style="stop-color:#1B8984"/>
			<stop  offset="0.97" style="stop-color:#22BFBB"/>
		</linearGradient>
		<rect x="181" y="76" class="st31" width="12" height="12"/>
	</g>
	<g class="st20">
		<linearGradient id="SVGID_34_" gradientUnits="userSpaceOnUse" x1="175.0358" y1="209.5032" x2="175.0358" y2="39.0586">
			<stop  offset="5.035582e-02" style="stop-color:#1B8984"/>
			<stop  offset="0.97" style="stop-color:#22BFBB"/>
		</linearGradient>
		<rect x="169" y="76" class="st32" width="12" height="12"/>
	</g>
</g>
<linearGradient id="SVGID_35_" gradientUnits="userSpaceOnUse" x1="340.1719" y1="209.5032" x2="340.1719" y2="39.0586">
	<stop  offset="5.035582e-02" style="stop-color:#1B8984"/>
	<stop  offset="0.97" style="stop-color:#22BFBB"/>
</linearGradient>
<path class="st33" d="M297.1,181.3h-18.4V72.5h28.6l32.8,68.3l32.8-68.3h28.5v108.8h-18.4v-85l-38,75.5H335l-37.8-75.5V181.3z"/>
<linearGradient id="SVGID_36_" gradientUnits="userSpaceOnUse" x1="455.825" y1="209.5032" x2="455.825" y2="39.0586">
	<stop  offset="5.035582e-02" style="stop-color:#1B8984"/>
	<stop  offset="0.97" style="stop-color:#22BFBB"/>
</linearGradient>
<path class="st34" d="M492.5,181.3h-15.9v-11.1c-6.8,8.2-16,12.3-27.6,12.3c-8.6,0-15.7-2.4-21.4-7.3c-5.7-4.9-8.5-11.4-8.5-19.5
	c0-8.1,3-14.2,9-18.3c6-4,14.2-6.1,24.4-6.1h22.6v-3.1c0-11-6.1-16.5-18.4-16.5c-7.7,0-15.7,2.8-24,8.4l-7.8-10.9
	c10.1-8,21.5-12,34.2-12c9.8,0,17.7,2.5,23.9,7.4c6.2,4.9,9.3,12.7,9.3,23.3V181.3z M475,150.5v-7h-19.6c-12.6,0-18.8,3.9-18.8,11.8
	c0,4,1.6,7.1,4.7,9.3c3.1,2.1,7.4,3.2,13,3.2c5.6,0,10.4-1.6,14.6-4.7C473,160,475,155.8,475,150.5z"/>
<linearGradient id="SVGID_37_" gradientUnits="userSpaceOnUse" x1="548.597" y1="209.5032" x2="548.597" y2="39.0586">
	<stop  offset="5.035582e-02" style="stop-color:#1B8984"/>
	<stop  offset="0.97" style="stop-color:#22BFBB"/>
</linearGradient>
<path class="st35" d="M589.5,98.5v72.2c0,14.6-4,25.6-11.9,32.9c-7.9,7.3-18.1,11-30.6,11c-12.5,0-23.7-3.9-33.8-11.7l8.2-13.2
	c8.1,6.1,16.3,9.2,24.5,9.2s14.8-2.1,19.6-6.4c4.8-4.3,7.2-11.1,7.2-20.4v-10.6c-2.6,4.9-6.3,8.8-11.1,11.7
	c-4.8,2.9-10.2,4.4-16.3,4.4c-11,0-20-3.8-27.1-11.5c-7.1-7.7-10.6-17.2-10.6-28.6c0-11.4,3.5-21,10.6-28.6
	c7.1-7.7,16.1-11.5,27-11.5c10.9,0,19.8,4.5,26.7,13.5V98.5H589.5z M524.9,136.7c0,6.8,2.1,12.7,6.3,17.6c4.2,4.9,9.9,7.4,17,7.4
	c7.1,0,12.9-2.4,17.3-7.2c4.4-4.8,6.6-10.7,6.6-17.8c0-7.1-2.2-13.1-6.7-18.1c-4.5-4.9-10.2-7.4-17.3-7.4c-7.1,0-12.7,2.5-16.9,7.6
	C527,123.9,524.9,129.9,524.9,136.7z"/>
<linearGradient id="SVGID_38_" gradientUnits="userSpaceOnUse" x1="617.3194" y1="209.5032" x2="617.3194" y2="39.0586">
	<stop  offset="5.035582e-02" style="stop-color:#1B8984"/>
	<stop  offset="0.97" style="stop-color:#22BFBB"/>
</linearGradient>
<path class="st36" d="M609.5,82c-2.2-2.2-3.3-4.8-3.3-7.8c0-3,1.1-5.6,3.3-7.8c2.2-2.2,4.8-3.3,7.8-3.3c3,0,5.6,1.1,7.8,3.3
	c2.2,2.2,3.3,4.8,3.3,7.8c0,3-1.1,5.6-3.3,7.8c-2.2,2.2-4.8,3.3-7.8,3.3C614.3,85.2,611.7,84.2,609.5,82z M625.9,181.3h-17.4V98.5
	h17.4V181.3z"/>
<linearGradient id="SVGID_39_" gradientUnits="userSpaceOnUse" x1="681.0601" y1="209.5032" x2="681.0601" y2="39.0586">
	<stop  offset="5.035582e-02" style="stop-color:#1B8984"/>
	<stop  offset="0.97" style="stop-color:#22BFBB"/>
</linearGradient>
<path class="st37" d="M684.7,182.5c-11.5,0-21.4-3.9-29.7-11.8c-8.3-7.8-12.5-18.1-12.5-30.7c0-12.7,4.3-23,13-30.9
	c8.7-7.9,19.2-11.9,31.7-11.9c12.5,0,23,4.3,31.6,12.9l-10.3,12.6c-7.2-6.2-14.4-9.3-21.6-9.3c-7.3,0-13.6,2.4-18.9,7.2
	c-5.3,4.8-8,11.1-8,18.7s2.6,14.1,7.9,19.4c5.3,5.3,11.8,7.9,19.5,7.9c7.7,0,15-3.5,21.9-10.6l10.3,11.2
	C709.5,177.4,697.9,182.5,684.7,182.5z"/>
<linearGradient id="SVGID_40_" gradientUnits="userSpaceOnUse" x1="782.0035" y1="209.5032" x2="782.0035" y2="39.0586">
	<stop  offset="5.035582e-02" style="stop-color:#1B8984"/>
	<stop  offset="0.97" style="stop-color:#22BFBB"/>
</linearGradient>
<path class="st38" d="M786.2,181.3h-47.6V72.5h42.3c7.4,0,13.7,0.9,19.1,2.6c5.3,1.8,9.3,4.2,11.9,7.2c5,5.6,7.5,11.9,7.5,19
	c0,8.5-2.7,14.8-8.1,19c-2,1.5-3.3,2.4-4,2.7c-0.7,0.4-2,1-3.9,1.8c6.7,1.5,12.1,4.5,16.1,9.1c4,4.6,6,10.4,6,17.2
	c0,7.6-2.6,14.3-7.8,20.1C811.5,177.9,801,181.3,786.2,181.3z M756.9,117.6h23.3c13.3,0,19.9-4.5,19.9-13.5c0-5.2-1.6-8.9-4.8-11.2
	c-3.2-2.3-8.2-3.4-14.9-3.4h-23.5V117.6z M756.9,164.3h28.8c6.7,0,11.9-1.1,15.5-3.2c3.6-2.1,5.4-6.1,5.4-12.1
	c0-9.7-7.7-14.5-23.2-14.5h-26.5V164.3z"/>
<linearGradient id="SVGID_41_" gradientUnits="userSpaceOnUse" x1="881.002" y1="209.5032" x2="881.002" y2="39.0586">
	<stop  offset="5.035582e-02" style="stop-color:#1B8984"/>
	<stop  offset="0.97" style="stop-color:#22BFBB"/>
</linearGradient>
<path class="st39" d="M912.1,170.2c-8.3,8.2-18.7,12.4-31.1,12.4s-22.8-4.1-31.1-12.4c-8.3-8.2-12.5-18.3-12.5-30.3
	c0-11.9,4.1-22,12.5-30.3c8.3-8.2,18.7-12.4,31.1-12.4s22.8,4.1,31.1,12.4c8.3,8.2,12.5,18.3,12.5,30.3
	C924.6,151.8,920.4,161.9,912.1,170.2z M862.2,159.4c4.9,5,11.2,7.5,18.8,7.5c7.6,0,13.8-2.5,18.8-7.5c4.9-5,7.4-11.5,7.4-19.5
	c0-8-2.5-14.5-7.4-19.5c-4.9-5-11.2-7.5-18.8-7.5c-7.6,0-13.8,2.5-18.8,7.5c-4.9,5-7.4,11.5-7.4,19.5
	C854.9,147.9,857.3,154.4,862.2,159.4z"/>
<linearGradient id="SVGID_42_" gradientUnits="userSpaceOnUse" x1="968.1705" y1="209.5032" x2="968.1705" y2="39.0586">
	<stop  offset="5.035582e-02" style="stop-color:#1B8984"/>
	<stop  offset="0.97" style="stop-color:#22BFBB"/>
</linearGradient>
<path class="st40" d="M950.6,98.5l17.7,27.2l18.4-27.2h20.7l-29,40.5l30.2,42.3h-21.5l-19.8-27.6l-19.3,27.6h-20.4l29.4-42.2
	l-27.9-40.6H950.6z"/>
</svg>
