<?xml version="1.0" encoding="utf-8"?>
<!-- Generator: Adobe Illustrator 21.1.0, SVG Export Plug-In . SVG Version: 6.00 Build 0)  -->
<svg version="1.1" id="Layer_1" xmlns="http://www.w3.org/2000/svg" xmlns:xlink="http://www.w3.org/1999/xlink" x="0px" y="0px"
	 viewBox="0 0 990.1 218.5" style="enable-background:new 0 0 990.1 218.5;" xml:space="preserve">
<style type="text/css">
	.st0{fill:url(#SVGID_1_);}
	.st1{fill:url(#SVGID_2_);}
	.st2{fill:url(#SVGID_3_);}
	.st3{fill:url(#SVGID_4_);}
	.st4{fill:url(#SVGID_5_);}
	.st5{fill:url(#SVGID_6_);}
	.st6{fill:url(#SVGID_7_);}
	.st7{fill:url(#SVGID_8_);}
	.st8{fill:url(#SVGID_9_);}
	.st9{fill:url(#SVGID_10_);}
	.st10{fill:url(#SVGID_11_);}
	.st11{fill:url(#SVGID_12_);}
	.st12{fill:url(#SVGID_13_);}
	.st13{fill:url(#SVGID_14_);}
	.st14{fill:url(#SVGID_15_);}
	.st15{fill:url(#SVGID_16_);}
	.st16{fill:url(#SVGID_17_);}
	.st17{fill:url(#SVGID_18_);}
	.st18{fill:url(#SVGID_19_);}
	.st19{fill:url(#SVGID_20_);}
	.st20{clip-path:url(#SVGID_22_);}
	.st21{fill:url(#SVGID_23_);}
	.st22{fill:url(#SVGID_24_);}
	.st23{fill:url(#SVGID_25_);}
	.st24{fill:url(#SVGID_26_);}
	.st25{fill:url(#SVGID_27_);}
	.st26{fill:url(#SVGID_28_);}
	.st27{fill:url(#SVGID_29_);}
	.st28{fill:url(#SVGID_30_);}
	.st29{fill:url(#SVGID_31_);}
	.st30{fill:url(#SVGID_32_);}
	.st31{fill:url(#SVGID_33_);}
	.st32{fill:url(#SVGID_34_);}
	.st33{fill:url(#SVGID_35_);}
	.st34{fill:url(#SVGID_36_);}
	.st35{fill:url(#SVGID_37_);}
	.st36{fill:url(#SVGID_38_);}
	.st37{fill:url(#SVGID_39_);}
	.st38{fill:url(#SVGID_40_);}
	.st39{fill:url(#SVGID_41_);}
	.st40{fill:url(#SVGID_42_);}
	.st41{fill:#22BFBB;}
	.st42{clip-path:url(#SVGID_44_);fill:#22BFBB;}
	.st43{fill:url(#SVGID_45_);}
	.st44{fill:url(#SVGID_46_);}
	.st45{fill:url(#SVGID_47_);}
	.st46{fill:url(#SVGID_48_);}
	.st47{fill:url(#SVGID_49_);}
	.st48{fill:url(#SVGID_50_);}
	.st49{fill:url(#SVGID_51_);}
	.st50{fill:url(#SVGID_52_);}
	.st51{fill:url(#SVGID_53_);}
	.st52{fill:url(#SVGID_54_);}
	.st53{fill:url(#SVGID_55_);}
	.st54{fill:url(#SVGID_56_);}
	.st55{fill:url(#SVGID_57_);}
	.st56{fill:url(#SVGID_58_);}
	.st57{fill:url(#SVGID_59_);}
	.st58{fill:url(#SVGID_60_);}
	.st59{fill:url(#SVGID_61_);}
	.st60{fill:url(#SVGID_62_);}
	.st61{fill:#FFFFFF;}
</style>
<g>
	<linearGradient id="SVGID_1_" gradientUnits="userSpaceOnUse" x1="156.3715" y1="208.914" x2="156.3715" y2="36.8878">
		<stop  offset="5.035582e-02" style="stop-color:#1B8984"/>
		<stop  offset="0.97" style="stop-color:#22BFBB"/>
	</linearGradient>
	<path class="st0" d="M97.1,120.2v60.1c0,1.3,1,2.3,2.3,2.3h113.9c1.3,0,2.3-1,2.3-2.3V72.8c-18.7,15.9-47.7,30.6-81.7,39.9
		C121.3,116.2,108.9,118.6,97.1,120.2z"/>
	<linearGradient id="SVGID_2_" gradientUnits="userSpaceOnUse" x1="119.8568" y1="208.914" x2="119.8568" y2="36.8878">
		<stop  offset="5.035582e-02" style="stop-color:#1B8984"/>
		<stop  offset="0.97" style="stop-color:#22BFBB"/>
	</linearGradient>
	<path class="st1" d="M237.6,29.3c-7.7-28.3-66.7-36.8-131.7-19S-5.6,65.4,2.1,93.7c6.2,22.8,45.8,32.8,95,26.4v-8.9
		c-40.1,4.2-72.2-5-77.6-24.6C12.7,61.5,51.8,29,106.8,14C161.9-1.1,212.1,7,218.9,32c2.7,10-1.9,21.2-11.9,32h6.3
		c1.3,0,2.3,1,2.3,2.3v6.5C232.6,58.3,241.3,42.8,237.6,29.3z"/>
	<linearGradient id="SVGID_3_" gradientUnits="userSpaceOnUse" x1="152.099" y1="208.914" x2="152.099" y2="36.8878">
		<stop  offset="5.035582e-02" style="stop-color:#1B8984"/>
		<stop  offset="0.97" style="stop-color:#22BFBB"/>
	</linearGradient>
	<path class="st2" d="M193,76.4V76h0.5c5.2-3.9,9.8-7.9,13.6-12H205h-12h-12h-12h-12h-12h-12v12h-12v12h-12v12h-12v11.2
		c11-1.2,22.7-3.3,34.5-6.6C156.2,98,177.5,87.8,193,76.4z"/>
	<linearGradient id="SVGID_4_" gradientUnits="userSpaceOnUse" x1="91.1515" y1="208.914" x2="91.1515" y2="36.8878">
		<stop  offset="5.035582e-02" style="stop-color:#1B8984"/>
		<stop  offset="0.97" style="stop-color:#22BFBB"/>
	</linearGradient>
	<rect x="85.2" y="28.1" class="st3" width="12" height="12"/>
	<linearGradient id="SVGID_5_" gradientUnits="userSpaceOnUse" x1="103.1349" y1="208.914" x2="103.1349" y2="36.8878">
		<stop  offset="5.035582e-02" style="stop-color:#1B8984"/>
		<stop  offset="0.97" style="stop-color:#22BFBB"/>
	</linearGradient>
	<rect x="97.1" y="40.1" class="st4" width="12" height="12"/>
	<linearGradient id="SVGID_6_" gradientUnits="userSpaceOnUse" x1="91.1515" y1="208.914" x2="91.1515" y2="36.8878">
		<stop  offset="5.035582e-02" style="stop-color:#1B8984"/>
		<stop  offset="0.97" style="stop-color:#22BFBB"/>
	</linearGradient>
	<rect x="85.2" y="64.1" class="st5" width="12" height="12"/>
	<linearGradient id="SVGID_7_" gradientUnits="userSpaceOnUse" x1="115.1184" y1="208.914" x2="115.1184" y2="36.8878">
		<stop  offset="5.035582e-02" style="stop-color:#1B8984"/>
		<stop  offset="0.97" style="stop-color:#22BFBB"/>
	</linearGradient>
	<rect x="109.1" y="64.1" class="st6" width="12" height="12"/>
	<linearGradient id="SVGID_8_" gradientUnits="userSpaceOnUse" x1="103.1349" y1="208.914" x2="103.1349" y2="36.8878">
		<stop  offset="5.035582e-02" style="stop-color:#1B8984"/>
		<stop  offset="0.97" style="stop-color:#22BFBB"/>
	</linearGradient>
	<rect x="97.1" y="76" class="st7" width="12" height="12"/>
	<linearGradient id="SVGID_9_" gradientUnits="userSpaceOnUse" x1="127.1019" y1="208.914" x2="127.1019" y2="36.8878">
		<stop  offset="5.035582e-02" style="stop-color:#1B8984"/>
		<stop  offset="0.97" style="stop-color:#22BFBB"/>
	</linearGradient>
	<rect x="121.1" y="52.1" class="st8" width="12" height="12"/>
	<g>
		<linearGradient id="SVGID_10_" gradientUnits="userSpaceOnUse" x1="345.6191" y1="208.914" x2="345.6191" y2="36.8878">
			<stop  offset="5.035582e-02" style="stop-color:#1B8984"/>
			<stop  offset="0.97" style="stop-color:#22BFBB"/>
		</linearGradient>
		<path class="st9" d="M295.1,137.6v45.9h-17.9V98.7h17.9v15.5c2.6-5.2,6.4-9.3,11.6-12.3c5.2-3,10.7-4.5,16.7-4.5
			c13.4,0,22.5,5.5,27.3,16.6C359,103,369.4,97.4,382,97.4c9.6,0,17.3,2.9,23.2,8.8c5.9,5.8,8.8,14.3,8.8,25.3v52h-17.9V137
			c0-15.6-6.5-23.4-19.4-23.4c-6.1,0-11.3,1.9-15.9,5.8c-4.5,3.9-6.9,9.5-7.1,17v47.2h-17.9V137c0-8.1-1.4-14-4.3-17.8
			c-2.9-3.8-7.4-5.7-13.6-5.7c-6.2,0-11.5,2-16.1,6.1C297.4,123.8,295.1,129.7,295.1,137.6z"/>
		<linearGradient id="SVGID_11_" gradientUnits="userSpaceOnUse" x1="461.7529" y1="208.914" x2="461.7529" y2="36.8878">
			<stop  offset="5.035582e-02" style="stop-color:#1B8984"/>
			<stop  offset="0.97" style="stop-color:#22BFBB"/>
		</linearGradient>
		<path class="st10" d="M499.3,183.5H483v-11.3c-7,8.4-16.4,12.6-28.2,12.6c-8.8,0-16.1-2.5-21.9-7.5c-5.8-5-8.7-11.7-8.7-20
			c0-8.3,3.1-14.6,9.2-18.7c6.2-4.1,14.5-6.2,25-6.2h23.1v-3.2c0-11.3-6.3-16.9-18.8-16.9c-7.9,0-16,2.9-24.5,8.6l-8-11.2
			c10.3-8.2,22-12.3,35.1-12.3c10,0,18.1,2.5,24.5,7.6c6.3,5,9.5,13,9.5,23.8V183.5z M481.4,152v-7.2h-20.1
			c-12.9,0-19.3,4-19.3,12.1c0,4.1,1.6,7.3,4.8,9.5c3.2,2.2,7.6,3.3,13.3,3.3c5.7,0,10.7-1.6,14.9-4.8
			C479.3,161.7,481.4,157.4,481.4,152z"/>
		<linearGradient id="SVGID_12_" gradientUnits="userSpaceOnUse" x1="549.9084" y1="208.914" x2="549.9084" y2="36.8878">
			<stop  offset="5.035582e-02" style="stop-color:#1B8984"/>
			<stop  offset="0.97" style="stop-color:#22BFBB"/>
		</linearGradient>
		<path class="st11" d="M591.8,98.7v74c0,15-4.1,26.2-12.2,33.7c-8.1,7.5-18.6,11.2-31.3,11.2c-12.8,0-24.3-4-34.6-12l8.4-13.6
			c8.3,6.3,16.7,9.4,25.1,9.4c8.4,0,15.1-2.2,20.1-6.5c4.9-4.4,7.4-11.3,7.4-20.9v-10.8c-2.7,5-6.5,9-11.4,12
			c-4.9,3-10.5,4.5-16.7,4.5c-11.3,0-20.5-3.9-27.7-11.8c-7.2-7.9-10.8-17.6-10.8-29.3c0-11.7,3.6-21.5,10.8-29.3
			c7.2-7.9,16.4-11.8,27.7-11.8c11.2,0,20.3,4.6,27.3,13.9V98.7H591.8z M525.6,137.8c0,7,2.2,13,6.5,18c4.3,5,10.1,7.6,17.4,7.6
			c7.3,0,13.2-2.4,17.7-7.3c4.5-4.9,6.8-11,6.8-18.3c0-7.3-2.3-13.4-6.9-18.5c-4.6-5-10.5-7.6-17.7-7.6c-7.2,0-13,2.6-17.3,7.8
			C527.7,124.8,525.6,130.9,525.6,137.8z"/>
		<linearGradient id="SVGID_13_" gradientUnits="userSpaceOnUse" x1="615.189" y1="208.914" x2="615.189" y2="36.8878">
			<stop  offset="5.035582e-02" style="stop-color:#1B8984"/>
			<stop  offset="0.97" style="stop-color:#22BFBB"/>
		</linearGradient>
		<path class="st12" d="M607.2,81.8c-2.2-2.2-3.3-4.9-3.3-8c0-3.1,1.1-5.7,3.3-8c2.2-2.2,4.9-3.3,8-3.3c3.1,0,5.7,1.1,8,3.3
			c2.2,2.2,3.3,4.9,3.3,8c0,3.1-1.1,5.7-3.3,8c-2.2,2.2-4.9,3.3-8,3.3C612.1,85.2,609.5,84,607.2,81.8z M624,183.5h-17.9V98.7H624
			V183.5z"/>
		<linearGradient id="SVGID_14_" gradientUnits="userSpaceOnUse" x1="675.3657" y1="208.914" x2="675.3657" y2="36.8878">
			<stop  offset="5.035582e-02" style="stop-color:#1B8984"/>
			<stop  offset="0.97" style="stop-color:#22BFBB"/>
		</linearGradient>
		<path class="st13" d="M679.1,184.8c-11.8,0-21.9-4-30.4-12c-8.5-8-12.8-18.5-12.8-31.5c0-13,4.4-23.5,13.3-31.6
			c8.9-8.1,19.7-12.2,32.4-12.2c12.8,0,23.5,4.4,32.4,13.2l-10.5,12.9c-7.3-6.4-14.7-9.6-22.2-9.6c-7.4,0-13.9,2.5-19.4,7.4
			c-5.5,4.9-8.2,11.3-8.2,19.1c0,7.8,2.7,14.4,8.1,19.8c5.4,5.4,12.1,8.1,20,8.1c7.9,0,15.4-3.6,22.4-10.8l10.5,11.5
			C704.5,179.6,692.6,184.8,679.1,184.8z"/>
		<linearGradient id="SVGID_15_" gradientUnits="userSpaceOnUse" x1="769.978" y1="208.914" x2="769.978" y2="36.8878">
			<stop  offset="5.035582e-02" style="stop-color:#1B8984"/>
			<stop  offset="0.97" style="stop-color:#22BFBB"/>
		</linearGradient>
		<path class="st14" d="M772.1,97.4c11.4,0,21.1,3.9,29.2,11.8c8.1,7.9,12.1,18.3,12.1,31.4s-4,23.7-12,31.9
			c-8,8.2-17.4,12.3-28.1,12.3s-20.3-4.7-28.8-14v12.8h-17.9V65.2h17.9v48.3C751.5,102.8,760.7,97.4,772.1,97.4z M744.2,141.3
			c0,8.1,2.4,14.7,7.3,19.8c4.9,5.2,10.8,7.7,17.9,7.7c7,0,13.1-2.6,18.3-7.7c5.2-5.1,7.8-11.7,7.8-19.8s-2.6-14.9-7.7-20.2
			c-5.1-5.4-11.2-8.1-18.3-8.1c-7.1,0-13.1,2.7-18,8.1C746.6,126.5,744.2,133.2,744.2,141.3z"/>
		<linearGradient id="SVGID_16_" gradientUnits="userSpaceOnUse" x1="864.5117" y1="208.914" x2="864.5117" y2="36.8878">
			<stop  offset="5.035582e-02" style="stop-color:#1B8984"/>
			<stop  offset="0.97" style="stop-color:#22BFBB"/>
		</linearGradient>
		<path class="st15" d="M896.4,172.1c-8.5,8.4-19.1,12.7-31.9,12.7s-23.4-4.2-31.9-12.7c-8.5-8.4-12.8-18.8-12.8-31
			c0-12.2,4.2-22.6,12.8-31c8.5-8.4,19.1-12.7,31.9-12.7s23.4,4.2,31.9,12.7c8.5,8.4,12.8,18.8,12.8,31
			C909.1,153.3,904.9,163.7,896.4,172.1z M845.3,161.1c5,5.2,11.5,7.7,19.2,7.7c7.8,0,14.2-2.6,19.2-7.7c5-5.2,7.6-11.8,7.6-20
			c0-8.2-2.5-14.9-7.6-20c-5-5.2-11.5-7.7-19.2-7.7c-7.8,0-14.2,2.6-19.2,7.7c-5,5.2-7.6,11.8-7.6,20
			C837.7,149.3,840.3,156,845.3,161.1z"/>
		<linearGradient id="SVGID_17_" gradientUnits="userSpaceOnUse" x1="947.0879" y1="208.914" x2="947.0879" y2="36.8878">
			<stop  offset="5.035582e-02" style="stop-color:#1B8984"/>
			<stop  offset="0.97" style="stop-color:#22BFBB"/>
		</linearGradient>
		<path class="st16" d="M929.1,98.7l18.2,27.9l18.8-27.9h21.2l-29.7,41.4l30.9,43.4h-22l-20.2-28.2l-19.8,28.2h-20.9l30.1-43.2
			l-28.5-41.6H929.1z"/>
	</g>
</g>
</svg>
